<?xml version="1.0" standalone="no"?>
<!DOCTYPE svg PUBLIC "-//W3C//DTD SVG 20010904//EN"
 "http://www.w3.org/TR/2001/REC-SVG-20010904/DTD/svg10.dtd">
<svg version="1.0" xmlns="http://www.w3.org/2000/svg"
 width="512.000000pt" height="512.000000pt" viewBox="0 0 512.000000 512.000000"
 preserveAspectRatio="xMidYMid meet">
<metadata>
Created by potrace 1.14, written by Peter Selinger 2001-2017
</metadata>
<g transform="translate(0.000000,512.000000) scale(0.100000,-0.100000)"
fill="#000000" stroke="none">
<path d="M2349 4470 c-7 -71 -2 -520 6 -523 8 -2 494 0 518 2 4 1 7 120 7 266
l0 265 -265 0 c-169 0 -265 -4 -266 -10z"/>
<path d="M1068 3823 c-3 -15 -2 -495 1 -513 1 -3 120 -5 266 -5 l265 0 0 268
0 267 -264 0 c-243 0 -264 -1 -268 -17z"/>
<path d="M1709 3838 c-4 -10 -3 -528 1 -529 18 -3 498 -4 513 -1 16 4 17 25
17 268 l0 264 -265 0 c-146 0 -265 -1 -266 -2z"/>
<path d="M2348 3823 c-3 -15 -2 -495 1 -513 1 -4 493 -5 524 -1 4 1 7 120 7
266 l0 265 -264 0 c-243 0 -264 -1 -268 -17z"/>
<path d="M3952 3364 c-90 -103 -131 -238 -137 -454 -2 -80 -1 -163 3 -185 11
-56 -4 -114 -36 -142 l-27 -23 -1879 0 -1879 0 6 -197 c4 -109 8 -209 11 -223
3 -14 7 -47 11 -75 35 -288 148 -590 296 -798 70 -98 189 -221 279 -288 36
-27 70 -52 75 -57 26 -21 179 -102 255 -135 77 -32 248 -87 325 -102 158 -32
291 -43 510 -40 127 2 239 5 250 8 11 2 52 8 90 13 39 4 72 8 75 9 3 0 26 4
51 8 89 15 105 18 224 48 434 109 816 299 1165 579 137 110 233 202 380 360
84 90 237 297 305 412 42 70 37 67 135 85 50 9 201 63 262 94 174 88 295 200
397 371 l22 37 -47 31 c-169 117 -427 199 -593 188 -54 -3 -61 -2 -61 15 0 28
-62 157 -108 223 -22 33 -62 82 -89 110 -59 62 -172 154 -190 154 -7 0 -13 5
-13 10 0 23 -30 7 -68 -36z"/>
<path d="M429 3188 c-3 -33 -4 -504 -2 -513 2 -6 96 -9 261 -8 141 1 260 2
265 2 4 1 7 120 7 266 l0 265 -265 0 c-205 0 -265 -3 -266 -12z"/>
<path d="M1069 3188 c-3 -33 -4 -504 -2 -513 2 -6 96 -9 261 -8 141 1 260 2
265 2 4 1 7 120 7 266 l0 265 -265 0 c-205 0 -265 -3 -266 -12z"/>
<path d="M1709 3193 c-2 -23 -4 -510 -2 -518 2 -6 96 -9 261 -8 141 1 260 2
265 2 4 1 7 120 7 266 l0 265 -265 0 c-146 0 -265 -3 -266 -7z"/>
<path d="M2349 3193 c-4 -37 -3 -516 1 -521 3 -4 123 -7 268 -7 l262 0 0 268
0 267 -265 0 c-146 0 -265 -3 -266 -7z"/>
<path d="M2985 2935 c0 -146 2 -265 5 -266 18 -3 498 -4 513 -1 16 4 17 25 17
268 l0 264 -267 0 -268 0 0 -265z"/>
</g>
</svg>
