<?xml version="1.0" standalone="no"?>
<!DOCTYPE svg PUBLIC "-//W3C//DTD SVG 20010904//EN"
 "http://www.w3.org/TR/2001/REC-SVG-20010904/DTD/svg10.dtd">
<svg version="1.0" xmlns="http://www.w3.org/2000/svg"
 width="1280.000000pt" height="1280.000000pt" viewBox="0 0 1280.000000 1280.000000"
 preserveAspectRatio="xMidYMid meet">
<metadata>
Created by potrace 1.14, written by Peter Selinger 2001-2017
</metadata>
<g transform="translate(0.000000,1280.000000) scale(0.100000,-0.100000)"
fill="#000000" stroke="none">
<path d="M9970 10354 c-137 -28 -241 -84 -340 -184 -91 -90 -162 -217 -177
-313 -2 -17 -8 -48 -12 -67 -8 -40 -7 -140 3 -185 3 -16 8 -40 10 -53 8 -38
17 -65 33 -100 17 -38 33 -9 -141 -253 l-89 -124 -100 -2 c-55 -1 -123 -7
-151 -13 -28 -6 -62 -14 -76 -16 -99 -18 -264 -96 -369 -174 -265 -197 -460
-542 -596 -1057 -30 -113 -26 -96 -60 -238 -14 -60 -44 -184 -66 -275 -22 -91
-47 -194 -55 -230 -9 -36 -18 -72 -21 -80 -3 -8 -7 -22 -9 -30 -2 -8 -30 -107
-63 -219 -57 -193 -76 -243 -77 -203 -1 9 -4 31 -7 47 -3 17 -9 44 -12 60 -3
17 -11 48 -17 70 -5 22 -12 50 -14 63 -6 29 -72 251 -83 277 -5 11 -35 85 -67
165 -114 286 -197 440 -337 625 -103 136 -267 304 -387 395 -25 19 -47 37 -50
40 -30 30 -218 156 -330 220 -88 51 -309 157 -395 189 -60 23 -85 33 -127 50
-37 16 -146 48 -264 80 -112 30 -130 35 -219 51 -27 5 -59 11 -71 14 -12 2
-45 7 -75 11 -30 3 -61 8 -69 10 -15 4 -114 14 -205 21 -83 6 -375 6 -451 0
-92 -8 -147 -14 -198 -21 -45 -6 -215 -35 -231 -39 -27 -7 -189 -47 -205 -51
-21 -5 -199 -65 -230 -78 -14 -5 -29 -11 -35 -13 -60 -16 -365 -168 -422 -210
-17 -13 -34 -24 -37 -24 -7 0 -161 -106 -211 -145 -109 -86 -171 -141 -285
-255 -130 -130 -169 -175 -257 -295 -29 -38 -56 -74 -60 -80 -24 -30 -127
-201 -165 -275 -101 -195 -194 -455 -222 -615 -3 -16 -7 -41 -10 -55 -3 -14
-9 -45 -12 -70 -3 -25 -7 -52 -9 -60 -22 -85 -23 -557 -1 -620 2 -8 7 -35 10
-60 5 -52 32 -187 48 -245 7 -22 12 -42 13 -45 33 -117 89 -269 141 -376 44
-93 134 -248 146 -252 4 -2 8 -9 8 -15 0 -37 240 -310 368 -418 l53 -45 -27
-57 c-18 -42 -27 -79 -29 -132 -9 -171 74 -326 253 -475 l42 -35 -38 -2 c-38
-1 -221 -60 -367 -116 -44 -17 -82 -32 -85 -32 -31 -8 -194 -89 -231 -116 -15
-10 -30 -19 -33 -19 -9 0 -57 -41 -105 -90 -92 -93 -116 -211 -69 -332 15 -40
103 -103 178 -128 102 -35 263 -33 455 6 44 8 89 17 100 19 11 1 101 22 200
45 190 44 349 59 445 40 25 -4 61 -11 80 -14 33 -5 227 -55 295 -76 429 -131
524 -152 720 -156 115 -2 171 1 240 15 143 29 303 77 400 120 11 5 74 30 140
56 66 26 127 51 137 55 63 33 309 102 408 114 236 30 485 -29 830 -197 36 -17
67 -32 70 -32 3 -1 39 -17 80 -37 327 -154 537 -204 776 -183 94 8 278 65 344
106 8 5 22 12 30 16 31 13 159 100 285 193 169 125 233 170 242 170 3 0 14 6
22 14 44 39 208 107 316 131 59 13 291 14 345 1 14 -3 48 -10 75 -16 28 -6 59
-12 70 -15 36 -7 157 -42 330 -94 162 -49 266 -78 310 -87 11 -2 31 -6 45 -9
106 -23 157 -28 270 -27 58 0 138 7 179 16 84 18 208 62 232 82 8 8 19 14 23
14 9 0 128 95 146 117 74 89 98 131 120 203 34 114 18 244 -45 355 -77 134
-204 232 -473 365 -61 30 -111 58 -112 63 0 4 16 30 36 58 85 122 277 483 323
609 14 37 17 45 50 124 12 27 21 53 21 58 0 6 6 24 14 41 8 18 24 66 36 107
12 41 24 82 27 90 8 20 10 27 12 43 1 6 27 24 59 40 90 43 133 127 106 207 -7
19 -11 36 -10 38 2 1 28 4 59 7 140 10 213 92 178 198 -25 74 -110 125 -219
130 l-47 3 4 89 c7 155 6 506 -2 605 -13 153 -28 270 -52 395 -3 17 -8 42 -10
56 -6 43 -44 200 -66 274 -77 260 -167 469 -293 679 -36 60 -66 112 -66 114 0
3 22 34 49 71 45 61 93 134 169 256 36 59 128 249 137 286 6 23 11 25 58 25
225 1 423 104 549 288 111 162 145 384 87 565 -66 206 -238 378 -438 436 -159
47 -329 35 -472 -33 -46 -22 -61 -26 -71 -16 -25 24 -154 83 -218 99 -84 22
-208 25 -290 9z m480 -1236 c0 -5 -12 -30 -26 -56 -15 -26 -37 -65 -49 -87
-50 -92 -81 -145 -131 -224 -29 -46 -55 -88 -57 -94 -2 -6 -47 26 -101 72
-105 89 -198 152 -298 202 -35 17 -65 33 -67 35 -2 2 20 33 49 69 54 68 66 72
120 45 55 -28 227 -40 325 -24 47 8 192 62 200 74 7 11 35 1 35 -12z"/>
</g>
</svg>
