<?xml version="1.0" standalone="no"?>
<!DOCTYPE svg PUBLIC "-//W3C//DTD SVG 20010904//EN"
 "http://www.w3.org/TR/2001/REC-SVG-20010904/DTD/svg10.dtd">
<svg version="1.0" xmlns="http://www.w3.org/2000/svg"
 width="700.000000pt" height="700.000000pt" viewBox="0 0 700.000000 700.000000"
 preserveAspectRatio="xMidYMid meet">
<metadata>
Created by potrace 1.11, written by Peter Selinger 2001-2013
</metadata>
<g transform="translate(0.000000,700.000000) scale(0.100000,-0.100000)"
fill="#000000" stroke="none">
<path d="M3111 6015 c-4 -5 -7 -158 -6 -340 l0 -330 362 -2 361 -2 0 342 1
342 -355 0 c-228 0 -358 -3 -363 -10z"/>
<path d="M1400 4864 l0 -342 360 0 360 -1 0 135 c1 169 1 272 0 427 l0 122
-360 0 -360 0 0 -341z"/>
<path d="M2254 5201 c-2 -2 -3 -156 -3 -341 l0 -338 362 2 362 1 0 325 c1 179
-1 332 -3 340 -3 13 -49 15 -358 15 -196 0 -357 -2 -360 -4z"/>
<path d="M3112 5195 c-4 -5 -7 -159 -7 -342 l0 -331 361 0 361 -1 1 327 c1
180 -1 334 -3 342 -4 13 -52 15 -356 15 -224 0 -353 -4 -357 -10z"/>
<path d="M5416 4972 c-140 -225 -171 -294 -214 -477 -22 -96 -26 -133 -26
-285 0 -151 3 -186 23 -260 17 -65 76 -207 108 -260 3 -5 -7 -10 -98 -48 -64
-27 -200 -60 -284 -69 -38 -4 -1155 -7 -2482 -7 l-2412 0 -12 -71 c-14 -79
-17 -359 -6 -479 77 -811 480 -1457 1112 -1784 272 -140 621 -229 980 -249
377 -21 785 10 1175 88 227 46 521 138 749 236 587 250 1108 684 1479 1232
125 184 232 379 333 606 l67 150 54 2 c251 8 369 31 531 102 110 48 235 150
319 261 47 61 178 315 178 343 -1 13 -162 116 -224 141 -46 19 -135 43 -191
51 -22 4 -48 9 -58 12 -55 15 -323 10 -445 -10 -9 -1 -22 33 -41 103 -52 198
-130 331 -294 499 -73 74 -260 221 -281 221 -6 0 -24 -22 -40 -48z"/>
<path d="M549 4380 c-4 -18 -3 -664 1 -670 3 -4 165 -7 360 -7 l355 2 2 338
c1 185 -2 338 -5 338 -22 4 -712 3 -713 -1z"/>
<path d="M1404 4381 c-2 -2 -4 -156 -4 -342 l0 -337 360 0 360 0 0 64 c1 81 1
184 0 427 l0 192 -356 0 c-195 0 -357 -2 -360 -4z"/>
<path d="M2255 4365 c-3 -11 -4 -164 -3 -340 l3 -320 360 0 360 0 0 340 0 340
-358 0 c-350 0 -358 0 -362 -20z"/>
<path d="M3106 4381 c-1 -4 -2 -157 -2 -341 l1 -335 360 0 360 0 0 340 0 340
-358 0 c-197 1 -359 -1 -361 -4z"/>
<path d="M3959 4345 c0 -45 0 -500 1 -587 l0 -57 358 2 357 2 0 340 0 340
-357 0 -358 1 -1 -41z"/>
</g>
</svg>
