<?xml version="1.0" encoding="iso-8859-1"?>
<!-- Generator: Adobe Illustrator 19.0.0, SVG Export Plug-In . SVG Version: 6.00 Build 0)  -->
<svg version="1.1" xmlns="http://www.w3.org/2000/svg" xmlns:xlink="http://www.w3.org/1999/xlink" x="0px" y="0px"
	 viewBox="0 0 511 511" style="enable-background:new 0 0 511 511;" xml:space="preserve">
<path style="fill:#FFD54F;" d="m334.28125 5.109375c-5.625 5.230469-7.558594 13.277344-4.921875 20.496094 9.371094 25.648437 14.125 52.75 14.125 80.554687 0 63.273438-24.640625 122.765625-69.378906 167.519532-44.746094 44.761718-104.253907 69.410156-167.550781 69.410156-27.738282 0-54.804688-4.75-80.449219-14.125-7.214844-2.636719-15.257813-.707032-20.492188 4.921875-5.234375 5.628906-6.582031 13.796875-3.425781 20.808593 20.492188 45.566407 53.339844 84.402344 94.984375 112.304688 42.679687 28.59375 92.480469 44.140625 144.027344 44.964844 36.664062.585937 72.347656-6.21875 106.058593-20.222656 32.480469-13.492188 61.652344-33.019532 86.703126-58.035157 25.046874-25.015625 44.609374-54.15625 58.148437-86.617187 13.535156-32.464844 20.390625-66.769532 20.386719-102.027344 0-1.328125-.007813-2.664062-.027344-3.996094-.753906-51.605468-16.292969-101.492187-44.929688-144.257812-27.929687-41.707032-66.816406-74.601563-112.449218-95.121094-7.011719-3.15625-15.179688-1.8125-20.808594 3.421875zm0 0"/></svg>
